<svg width="22" height="48" viewBox="0 0 22 48" fill="none" xmlns="http://www.w3.org/2000/svg">
<path d="M20.6897 34.8278L11.1568 37.7792C10.7734 37.8979 10.389 37.8778 10.0468 37.7562C9.29669 38.7887 8.86328 40.0522 8.86328 41.394V48H21.936V33.1373C21.936 33.9129 21.4305 34.5983 20.6897 34.8278Z" fill="#F78E20"/>
<path d="M20.3784 22.7018L11.7294 25.3796C11.3039 25.5115 10.8773 25.5061 10.4871 25.3978L9.73941 25.8351C9.19667 26.1528 8.86328 26.7338 8.86328 27.3628V36.0892C8.86328 36.88 9.37219 37.5179 10.0468 37.7572C10.8141 36.7011 11.9128 35.8867 13.2233 35.4808L21.936 32.7833V21.7849C21.936 21.5825 21.9002 21.3927 21.8404 21.2162C21.634 21.9119 21.0971 22.4797 20.3779 22.7022L20.3784 22.7018Z" fill="#F15A3E"/>
<path d="M10.0469 37.7567C10.3891 37.8778 10.7735 37.8983 11.1569 37.7797L20.6898 34.8282C21.4311 34.5988 21.9361 33.9134 21.9361 33.1378V32.7833L13.2234 35.4808C11.9124 35.8867 10.8137 36.7011 10.0469 37.7571V37.7567Z" fill="#E63625"/>
<path d="M9.60059 12.3324L16.9381 5.76712C18.1956 4.64194 19.9341 4.83118 20.9941 5.81517L21.9359 4.93757L21.8952 0H13.3556L0 7.32571V13.1134H8.86321V13.9807C8.86321 13.3517 9.13139 12.7521 9.6001 12.3324H9.60059Z" fill="#5E1042"/>
<path d="M20.9942 5.81565L8.86328 17.1199V23.2665C8.86328 24.3108 9.57271 25.1433 10.4871 25.3973L19.2723 20.2567C20.2774 19.6689 21.4992 20.2008 21.8404 21.2152C21.8997 21.0147 21.936 20.8054 21.936 20.5887V8.00179C21.936 7.09772 21.5624 6.34269 20.9942 5.81516V5.81565Z" fill="#C2203D"/>
<path d="M19.2726 20.2568L10.4873 25.3973C10.8771 25.5057 11.3041 25.511 11.7297 25.3792L20.3786 22.7013C21.0979 22.4787 21.6347 21.9109 21.8411 21.2152C21.4999 20.2004 20.2776 19.6684 19.2731 20.2568H19.2726Z" fill="#B62025"/>
<path d="M16.9381 5.76713L9.60065 12.3324C9.13146 12.7521 8.86377 13.3517 8.86377 13.9807V17.12L20.9947 5.81566C19.9347 4.83168 18.1962 4.64194 16.9386 5.76762L16.9381 5.76713Z" fill="#441219"/>
</svg>
