<svg width="188" height="48" viewBox="0 0 188 48" fill="none" xmlns="http://www.w3.org/2000/svg">
<path d="M20.6897 34.8278L11.1568 37.7793C10.7734 37.8979 10.389 37.8778 10.0468 37.7562C9.29669 38.7887 8.86328 40.0522 8.86328 41.3941V48.0001H21.936V33.1373C21.936 33.9129 21.4305 34.5984 20.6897 34.8278Z" fill="#F78E20"/>
<path d="M20.3784 22.7017L11.7294 25.3796C11.3039 25.5115 10.8773 25.5061 10.4871 25.3977L9.73941 25.8351C9.19667 26.1528 8.86328 26.7338 8.86328 27.3628V36.0892C8.86328 36.88 9.37219 37.5179 10.0468 37.7571C10.8141 36.7011 11.9128 35.8867 13.2233 35.4808L21.936 32.7833V21.7849C21.936 21.5824 21.9002 21.3927 21.8404 21.2162C21.634 21.9119 21.0971 22.4796 20.3779 22.7022L20.3784 22.7017Z" fill="#F15A3E"/>
<path d="M10.0466 37.7567C10.3888 37.8778 10.7732 37.8984 11.1566 37.7797L20.6895 34.8283C21.4308 34.5988 21.9358 33.9134 21.9358 33.1378V32.7833L13.2231 35.4808C11.9121 35.8868 10.8134 36.7011 10.0466 37.7572V37.7567Z" fill="#E63625"/>
<path d="M9.60059 12.3324L16.9381 5.76712C18.1956 4.64194 19.9341 4.83118 20.9941 5.81517L21.9359 4.93757L21.8952 0H13.3556L0 7.32571V13.1134H8.86321V13.9807C8.86321 13.3517 9.13139 12.7521 9.6001 12.3324H9.60059Z" fill="#5E1042"/>
<path d="M20.9942 5.81568L8.86328 17.12V23.2666C8.86328 24.3109 9.57271 25.1433 10.4871 25.3973L19.2723 20.2568C20.2774 19.6689 21.4992 20.2009 21.8404 21.2153C21.8997 21.0147 21.936 20.8054 21.936 20.5887V8.00182C21.936 7.09775 21.5624 6.34272 20.9942 5.81519V5.81568Z" fill="#C2203D"/>
<path d="M19.2728 20.2568L10.4875 25.3973C10.8773 25.5057 11.3043 25.511 11.7299 25.3792L20.3789 22.7013C21.0981 22.4787 21.635 21.9109 21.8414 21.2152C21.5001 20.2004 20.2779 19.6684 19.2733 20.2568H19.2728Z" fill="#B62025"/>
<path d="M16.9381 5.76716L9.60065 12.3324C9.13146 12.7521 8.86377 13.3517 8.86377 13.9808V17.12L20.9947 5.81569C19.9347 4.83171 18.1962 4.64197 16.9386 5.76765L16.9381 5.76716Z" fill="#441219"/>
<path d="M50.2082 15.3226C50.2597 15.3407 50.3181 15.3441 50.3759 15.326L51.8173 14.8798C51.9296 14.845 52.0061 14.7416 52.0061 14.6244V12.9075C52.0061 12.8766 52.0007 12.8481 51.9914 12.8217C51.9399 12.6682 51.7551 12.5878 51.6031 12.6765L50.2744 13.4541L50.1612 13.5203C50.0793 13.5683 50.0288 13.6561 50.0288 13.7512V15.071C50.0288 15.1907 50.1058 15.2873 50.2078 15.323L50.2082 15.3226Z" fill="white"/>
<path d="M54.612 19.8483C54.612 20.9406 54.3095 21.7305 53.704 22.2178C53.0986 22.7051 52.3234 22.9488 51.3787 22.9488C50.9943 22.9488 50.002 22.8968 49.6029 22.7939C49.2043 22.6904 48.8351 22.5174 48.4953 22.2737C48.1556 22.03 47.8786 21.6981 47.6648 21.2775C47.4511 20.8568 47.3437 20.3288 47.3437 19.6944C47.3437 19.0599 47.4653 18.3956 47.7089 17.7901C47.9526 17.1851 48.2071 16.6757 48.4728 16.2619C48.5463 16.1438 48.5243 16.0482 48.4061 15.9741L47.1883 15.3098C47.0407 15.2211 46.9373 15.2289 46.8784 15.3319C46.4945 15.878 46.1587 16.5536 45.8709 17.3582C45.5831 18.1632 45.439 19.0006 45.439 19.8713C45.439 20.6538 45.564 21.3441 45.8155 21.9418C46.0665 22.5394 46.4166 23.0449 46.8671 23.4587C47.3172 23.872 47.8639 24.1858 48.5061 24.3995C49.1484 24.6133 50.4702 24.7207 51.2674 24.7207C52.95 24.7207 54.238 24.2922 55.1312 23.4361C56.024 22.5796 56.4712 21.3912 56.4712 19.8709V12.6393H54.6111V19.8488L54.612 19.8483Z" fill="white"/>
<path d="M67.2325 11.9985C66.4941 11.2386 65.4685 10.8582 64.1545 10.8582C63.5638 10.8582 63.0102 10.9577 62.494 11.1572C61.9772 11.3568 61.5232 11.6593 61.132 12.0652C60.7407 12.4717 60.4343 12.9879 60.2132 13.6155C59.9921 14.243 59.8813 14.9775 59.8813 15.8188C59.8813 16.6601 59.9774 17.369 60.1691 17.9446C60.3608 18.5202 60.6412 18.982 61.0104 19.3287C61.3791 19.6758 61.8257 19.9263 62.3503 20.0817C62.8744 20.2366 63.4608 20.3141 64.1109 20.3141H66.4804V20.8897C66.4804 21.303 66.4284 21.6462 66.3255 21.9193C66.222 22.1924 66.0779 22.4066 65.8935 22.5615C65.7087 22.7165 65.491 22.8273 65.2405 22.8939C64.9895 22.9606 64.7164 22.9935 64.4212 22.9935C60.8917 22.9935 62.3959 22.993 58.8664 22.991C58.8502 22.991 58.8345 22.991 58.8184 22.991L58.2163 24.7207H64.5095C65.0856 24.7207 65.6092 24.6467 66.0818 24.4991C66.5539 24.3515 66.9565 24.1226 67.2884 23.8127C67.6203 23.5029 67.8787 23.1043 68.0635 22.6169C68.2479 22.1296 68.3405 21.5393 68.3405 20.8456V15.6859C68.3405 13.9886 67.9713 12.7594 67.233 11.999L67.2325 11.9985ZM66.4799 18.5864H64.2433C63.4162 18.5864 62.7925 18.3868 62.3719 17.9882C61.9512 17.5896 61.7409 16.8665 61.7409 15.8183C61.7409 14.8441 61.9547 14.0616 62.3832 13.4708C62.8112 12.8805 63.402 12.5849 64.1545 12.5849C64.9811 12.5849 65.5749 12.858 65.9372 13.4042C66.2985 13.9503 66.4799 14.7107 66.4799 15.6849V18.5859V18.5864Z" fill="white"/>
<path d="M39.5192 26.6613C38.5573 26.6613 37.7126 26.8417 36.985 27.2025C36.2574 27.5634 35.65 28.0473 35.1626 28.6547C34.6753 29.2622 34.3115 29.9647 34.0713 30.7619C33.8306 31.5591 33.7104 32.3945 33.7104 33.2677C33.7104 35.2798 34.1821 36.8654 35.1249 38.0234C36.0677 39.1814 37.4885 39.7605 39.3869 39.7605C40.311 39.7605 41.1303 39.5835 41.8451 39.229C42.5604 38.8745 43.1615 38.3999 43.6484 37.8052C44.1357 37.2105 44.5058 36.5109 44.7588 35.7073C45.0123 34.9038 45.1388 34.0527 45.1388 33.154C45.1388 31.1164 44.6706 29.525 43.7342 28.3797C42.7977 27.2344 41.3926 26.6617 39.5192 26.6617V26.6613ZM42.2246 36.8845C41.5725 37.7768 40.6395 38.223 39.4246 38.223C38.1082 38.223 37.1404 37.7925 36.5202 36.9321C35.9 36.0716 35.5902 34.793 35.5902 33.0971C35.5902 32.3759 35.6755 31.7111 35.8461 31.1036C36.0172 30.4962 36.2638 29.9804 36.5864 29.5563C36.909 29.1322 37.3081 28.8003 37.7827 28.5596C38.2573 28.3194 38.8044 28.1988 39.4246 28.1988C40.6778 28.1988 41.6206 28.6322 42.2535 29.499C42.8865 30.3658 43.2027 31.6282 43.2027 33.2864C43.2027 34.7925 42.8767 35.9917 42.2251 36.884L42.2246 36.8845Z" fill="white"/>
<path d="M52.5267 29.3823C51.7555 29.3823 51.1162 29.5279 50.6088 29.8187C50.1013 30.1094 49.7125 30.5325 49.4419 31.087V29.6054L47.7578 29.727V39.3055H49.5233V31.7969C49.8209 31.5263 50.1861 31.3032 50.6191 31.1272C51.052 30.9512 51.5055 30.8634 51.9786 30.8634C52.6145 30.8634 53.095 31.036 53.4195 31.3812C53.7441 31.7263 53.9069 32.2843 53.9069 33.0555V39.306H55.6723V32.7309C55.6723 31.6484 55.3948 30.8198 54.8403 30.2447C54.2858 29.6696 53.5146 29.3823 52.5267 29.3823Z" fill="white"/>
<path d="M60.542 37.2968C60.0394 36.8257 59.7845 36.0319 59.7301 34.9631H65.8183C65.9399 34.138 65.964 33.38 65.8894 32.6902C65.8149 32.0004 65.6389 31.4115 65.3619 30.9247C65.0844 30.4378 64.7025 30.0554 64.2151 29.7779C63.7283 29.5004 63.1262 29.3617 62.409 29.3617C61.6917 29.3617 61.0323 29.5004 60.4709 29.7779C59.909 30.0554 59.4394 30.4408 59.0604 30.9345C58.6814 31.4282 58.3941 32.017 58.198 32.7C58.0019 33.3834 57.9038 34.1306 57.9038 34.9425C57.9038 36.3496 58.2759 37.4792 59.0202 38.3318C59.7644 39.1839 61.1029 39.6104 62.1251 39.6104C62.8556 39.6104 66.896 39.5908 66.896 39.5908L67.4578 37.9675L62.5516 38.0278C62.5516 38.0278 61.2867 37.9955 60.5425 37.2973L60.542 37.2968ZM60.5724 31.6145C61.0259 31.1277 61.5637 30.884 62.1859 30.884C62.808 30.884 63.3429 31.0801 63.7082 31.4723C64.0734 31.8646 64.2426 32.5549 64.2156 33.5423L59.7512 33.7859C59.8458 32.8255 60.1199 32.1014 60.5729 31.6145H60.5724Z" fill="white"/>
<rect opacity="0.24" x="78.3408" y="12" width="1" height="24" fill="white"/>
<path d="M93.0368 12.298C93.2048 12.606 93.3962 12.9887 93.6108 13.446C93.8348 13.894 94.0635 14.384 94.2968 14.916C94.5395 15.4387 94.7775 15.9753 95.0108 16.526C95.2442 17.0767 95.4635 17.5947 95.6688 18.08C95.8742 17.5947 96.0935 17.0767 96.3268 16.526C96.5602 15.9753 96.7935 15.4387 97.0268 14.916C97.2695 14.384 97.4982 13.894 97.7128 13.446C97.9368 12.9887 98.1328 12.606 98.3008 12.298H100.289C100.382 12.942 100.466 13.6653 100.541 14.468C100.625 15.2613 100.695 16.092 100.751 16.96C100.816 17.8187 100.872 18.682 100.919 19.55C100.975 20.418 101.021 21.2347 101.059 22H98.9308C98.9028 21.0573 98.8655 20.0307 98.8188 18.92C98.7722 17.8093 98.7022 16.6893 98.6088 15.56C98.4408 15.952 98.2542 16.386 98.0488 16.862C97.8435 17.338 97.6382 17.814 97.4328 18.29C97.2368 18.766 97.0455 19.2233 96.8588 19.662C96.6722 20.0913 96.5135 20.46 96.3828 20.768H94.8568C94.7262 20.46 94.5675 20.0913 94.3808 19.662C94.1942 19.2233 93.9982 18.766 93.7928 18.29C93.5968 17.814 93.3962 17.338 93.1908 16.862C92.9855 16.386 92.7988 15.952 92.6308 15.56C92.5375 16.6893 92.4675 17.8093 92.4208 18.92C92.3742 20.0307 92.3368 21.0573 92.3088 22H90.1808C90.2182 21.2347 90.2602 20.418 90.3068 19.55C90.3628 18.682 90.4188 17.8187 90.4748 16.96C90.5402 16.092 90.6102 15.2613 90.6848 14.468C90.7688 13.6653 90.8575 12.942 90.9508 12.298H93.0368ZM102.535 18.374C102.535 17.7207 102.633 17.1513 102.829 16.666C103.035 16.1713 103.301 15.7607 103.627 15.434C103.954 15.1073 104.327 14.86 104.747 14.692C105.177 14.524 105.615 14.44 106.063 14.44C107.109 14.44 107.935 14.762 108.541 15.406C109.148 16.0407 109.451 16.9787 109.451 18.22C109.451 18.3413 109.447 18.4767 109.437 18.626C109.428 18.766 109.419 18.892 109.409 19.004H104.677C104.724 19.4333 104.925 19.774 105.279 20.026C105.634 20.278 106.11 20.404 106.707 20.404C107.09 20.404 107.463 20.3713 107.827 20.306C108.201 20.2313 108.504 20.1427 108.737 20.04L109.017 21.734C108.905 21.79 108.756 21.846 108.569 21.902C108.383 21.958 108.173 22.0047 107.939 22.042C107.715 22.0887 107.473 22.126 107.211 22.154C106.95 22.182 106.689 22.196 106.427 22.196C105.765 22.196 105.186 22.098 104.691 21.902C104.206 21.706 103.8 21.44 103.473 21.104C103.156 20.7587 102.918 20.3527 102.759 19.886C102.61 19.4193 102.535 18.9153 102.535 18.374ZM107.435 17.576C107.426 17.3987 107.393 17.226 107.337 17.058C107.291 16.89 107.211 16.7407 107.099 16.61C106.997 16.4793 106.861 16.372 106.693 16.288C106.535 16.204 106.334 16.162 106.091 16.162C105.858 16.162 105.657 16.204 105.489 16.288C105.321 16.3627 105.181 16.4653 105.069 16.596C104.957 16.7267 104.869 16.8807 104.803 17.058C104.747 17.226 104.705 17.3987 104.677 17.576H107.435ZM110.711 18.374C110.711 17.7207 110.809 17.1513 111.005 16.666C111.21 16.1713 111.476 15.7607 111.803 15.434C112.13 15.1073 112.503 14.86 112.923 14.692C113.352 14.524 113.791 14.44 114.239 14.44C115.284 14.44 116.11 14.762 116.717 15.406C117.324 16.0407 117.627 16.9787 117.627 18.22C117.627 18.3413 117.622 18.4767 117.613 18.626C117.604 18.766 117.594 18.892 117.585 19.004H112.853C112.9 19.4333 113.1 19.774 113.455 20.026C113.81 20.278 114.286 20.404 114.883 20.404C115.266 20.404 115.639 20.3713 116.003 20.306C116.376 20.2313 116.68 20.1427 116.913 20.04L117.193 21.734C117.081 21.79 116.932 21.846 116.745 21.902C116.558 21.958 116.348 22.0047 116.115 22.042C115.891 22.0887 115.648 22.126 115.387 22.154C115.126 22.182 114.864 22.196 114.603 22.196C113.94 22.196 113.362 22.098 112.867 21.902C112.382 21.706 111.976 21.44 111.649 21.104C111.332 20.7587 111.094 20.3527 110.935 19.886C110.786 19.4193 110.711 18.9153 110.711 18.374ZM115.611 17.576C115.602 17.3987 115.569 17.226 115.513 17.058C115.466 16.89 115.387 16.7407 115.275 16.61C115.172 16.4793 115.037 16.372 114.869 16.288C114.71 16.204 114.51 16.162 114.267 16.162C114.034 16.162 113.833 16.204 113.665 16.288C113.497 16.3627 113.357 16.4653 113.245 16.596C113.133 16.7267 113.044 16.8807 112.979 17.058C112.923 17.226 112.881 17.3987 112.853 17.576H115.611ZM119.167 12.802L121.253 12.466V14.636H123.759V16.372H121.253V18.962C121.253 19.4007 121.328 19.7507 121.477 20.012C121.636 20.2733 121.948 20.404 122.415 20.404C122.639 20.404 122.868 20.3853 123.101 20.348C123.344 20.3013 123.563 20.2407 123.759 20.166L124.053 21.79C123.801 21.8927 123.521 21.9813 123.213 22.056C122.905 22.1307 122.527 22.168 122.079 22.168C121.51 22.168 121.038 22.0933 120.665 21.944C120.292 21.7853 119.993 21.5707 119.769 21.3C119.545 21.02 119.386 20.684 119.293 20.292C119.209 19.9 119.167 19.466 119.167 18.99V12.802ZM127.544 22H125.458V14.636H127.544V22ZM127.74 12.508C127.74 12.8907 127.614 13.194 127.362 13.418C127.119 13.6327 126.83 13.74 126.494 13.74C126.158 13.74 125.864 13.6327 125.612 13.418C125.369 13.194 125.248 12.8907 125.248 12.508C125.248 12.1253 125.369 11.8267 125.612 11.612C125.864 11.388 126.158 11.276 126.494 11.276C126.83 11.276 127.119 11.388 127.362 11.612C127.614 11.8267 127.74 12.1253 127.74 12.508ZM129.504 14.888C129.859 14.7853 130.316 14.692 130.876 14.608C131.436 14.5147 132.024 14.468 132.64 14.468C133.266 14.468 133.784 14.552 134.194 14.72C134.614 14.8787 134.946 15.1073 135.188 15.406C135.431 15.7047 135.604 16.0593 135.706 16.47C135.809 16.8807 135.86 17.338 135.86 17.842V22H133.774V18.094C133.774 17.422 133.686 16.946 133.508 16.666C133.331 16.386 133 16.246 132.514 16.246C132.365 16.246 132.206 16.2553 132.038 16.274C131.87 16.2833 131.721 16.2973 131.59 16.316V22H129.504V14.888ZM139.527 18.08C139.527 19.2467 139.998 19.83 140.941 19.83C141.155 19.83 141.356 19.802 141.543 19.746C141.729 19.69 141.888 19.6247 142.019 19.55V16.218C141.916 16.1993 141.795 16.1853 141.655 16.176C141.515 16.1573 141.351 16.148 141.165 16.148C140.614 16.148 140.203 16.33 139.933 16.694C139.662 17.058 139.527 17.52 139.527 18.08ZM144.105 21.076C144.105 22.28 143.797 23.1713 143.181 23.75C142.574 24.338 141.631 24.632 140.353 24.632C139.905 24.632 139.457 24.59 139.009 24.506C138.561 24.4313 138.145 24.3287 137.763 24.198L138.127 22.448C138.453 22.5787 138.794 22.6813 139.149 22.756C139.513 22.8307 139.923 22.868 140.381 22.868C140.978 22.868 141.398 22.7373 141.641 22.476C141.893 22.2147 142.019 21.8787 142.019 21.468V21.202C141.795 21.3047 141.561 21.384 141.319 21.44C141.085 21.4867 140.829 21.51 140.549 21.51C139.531 21.51 138.752 21.2113 138.211 20.614C137.669 20.0073 137.399 19.1627 137.399 18.08C137.399 17.5387 137.483 17.0487 137.651 16.61C137.819 16.162 138.061 15.7793 138.379 15.462C138.705 15.1447 139.102 14.902 139.569 14.734C140.035 14.5567 140.563 14.468 141.151 14.468C141.403 14.468 141.659 14.482 141.921 14.51C142.191 14.5287 142.457 14.5567 142.719 14.594C142.98 14.6313 143.227 14.678 143.461 14.734C143.703 14.7807 143.918 14.832 144.105 14.888V21.076ZM152.406 12.186C153.862 12.186 154.978 12.4473 155.752 12.97C156.527 13.4833 156.914 14.286 156.914 15.378C156.914 16.0593 156.756 16.6147 156.438 17.044C156.13 17.464 155.682 17.7953 155.094 18.038C155.29 18.2807 155.496 18.5607 155.71 18.878C155.925 19.186 156.135 19.5127 156.34 19.858C156.555 20.194 156.76 20.5487 156.956 20.922C157.152 21.286 157.334 21.6453 157.502 22H155.052C154.875 21.6827 154.693 21.3607 154.506 21.034C154.329 20.7073 154.142 20.39 153.946 20.082C153.76 19.774 153.573 19.4847 153.386 19.214C153.2 18.934 153.013 18.682 152.826 18.458H151.748V22H149.564V12.438C150.04 12.3447 150.53 12.2793 151.034 12.242C151.548 12.2047 152.005 12.186 152.406 12.186ZM152.532 14.048C152.374 14.048 152.229 14.0527 152.098 14.062C151.977 14.0713 151.86 14.0807 151.748 14.09V16.722H152.364C153.186 16.722 153.774 16.6193 154.128 16.414C154.483 16.2087 154.66 15.8587 154.66 15.364C154.66 14.888 154.478 14.552 154.114 14.356C153.76 14.1507 153.232 14.048 152.532 14.048ZM165.295 18.304C165.295 18.8827 165.211 19.4147 165.043 19.9C164.875 20.376 164.632 20.7867 164.315 21.132C163.997 21.468 163.615 21.7293 163.167 21.916C162.728 22.1027 162.233 22.196 161.683 22.196C161.141 22.196 160.647 22.1027 160.199 21.916C159.76 21.7293 159.382 21.468 159.065 21.132C158.747 20.7867 158.5 20.376 158.323 19.9C158.145 19.4147 158.057 18.8827 158.057 18.304C158.057 17.7253 158.145 17.198 158.323 16.722C158.509 16.246 158.761 15.84 159.079 15.504C159.405 15.168 159.788 14.9067 160.227 14.72C160.675 14.5333 161.16 14.44 161.683 14.44C162.215 14.44 162.7 14.5333 163.139 14.72C163.587 14.9067 163.969 15.168 164.287 15.504C164.604 15.84 164.851 16.246 165.029 16.722C165.206 17.198 165.295 17.7253 165.295 18.304ZM163.167 18.304C163.167 17.66 163.036 17.156 162.775 16.792C162.523 16.4187 162.159 16.232 161.683 16.232C161.207 16.232 160.838 16.4187 160.577 16.792C160.315 17.156 160.185 17.66 160.185 18.304C160.185 18.948 160.315 19.4613 160.577 19.844C160.838 20.2173 161.207 20.404 161.683 20.404C162.159 20.404 162.523 20.2173 162.775 19.844C163.036 19.4613 163.167 18.948 163.167 18.304ZM173.799 18.304C173.799 18.8827 173.715 19.4147 173.547 19.9C173.379 20.376 173.136 20.7867 172.819 21.132C172.501 21.468 172.119 21.7293 171.671 21.916C171.232 22.1027 170.737 22.196 170.187 22.196C169.645 22.196 169.151 22.1027 168.703 21.916C168.264 21.7293 167.886 21.468 167.569 21.132C167.251 20.7867 167.004 20.376 166.827 19.9C166.649 19.4147 166.561 18.8827 166.561 18.304C166.561 17.7253 166.649 17.198 166.827 16.722C167.013 16.246 167.265 15.84 167.583 15.504C167.909 15.168 168.292 14.9067 168.731 14.72C169.179 14.5333 169.664 14.44 170.187 14.44C170.719 14.44 171.204 14.5333 171.643 14.72C172.091 14.9067 172.473 15.168 172.791 15.504C173.108 15.84 173.355 16.246 173.533 16.722C173.71 17.198 173.799 17.7253 173.799 18.304ZM171.671 18.304C171.671 17.66 171.54 17.156 171.279 16.792C171.027 16.4187 170.663 16.232 170.187 16.232C169.711 16.232 169.342 16.4187 169.081 16.792C168.819 17.156 168.689 17.66 168.689 18.304C168.689 18.948 168.819 19.4613 169.081 19.844C169.342 20.2173 169.711 20.404 170.187 20.404C170.663 20.404 171.027 20.2173 171.279 19.844C171.54 19.4613 171.671 18.948 171.671 18.304ZM179.461 18.094C179.461 17.422 179.372 16.946 179.195 16.666C179.027 16.386 178.733 16.246 178.313 16.246C178.182 16.246 178.047 16.2553 177.907 16.274C177.767 16.2833 177.631 16.2973 177.501 16.316V22H175.415V14.888C175.592 14.8413 175.797 14.7947 176.031 14.748C176.273 14.692 176.525 14.6453 176.787 14.608C177.057 14.5613 177.333 14.5287 177.613 14.51C177.893 14.482 178.168 14.468 178.439 14.468C178.971 14.468 179.4 14.538 179.727 14.678C180.063 14.8087 180.338 14.9673 180.553 15.154C180.851 14.9393 181.192 14.7713 181.575 14.65C181.967 14.5287 182.326 14.468 182.653 14.468C183.241 14.468 183.721 14.552 184.095 14.72C184.477 14.8787 184.781 15.1073 185.005 15.406C185.229 15.7047 185.383 16.0593 185.467 16.47C185.551 16.8807 185.593 17.338 185.593 17.842V22H183.507V18.094C183.507 17.422 183.418 16.946 183.241 16.666C183.073 16.386 182.779 16.246 182.359 16.246C182.247 16.246 182.088 16.274 181.883 16.33C181.687 16.386 181.523 16.456 181.393 16.54C181.458 16.7547 181.5 16.9833 181.519 17.226C181.537 17.4593 181.547 17.7113 181.547 17.982V22H179.461V18.094Z" fill="white"/>
<path d="M92.6168 36.072C92.4488 36.072 92.2648 36.068 92.0648 36.06C91.8728 36.052 91.6768 36.04 91.4768 36.024C91.2848 36.008 91.0928 35.988 90.9008 35.964C90.7088 35.94 90.5328 35.908 90.3728 35.868V27.804C90.5328 27.764 90.7088 27.732 90.9008 27.708C91.0928 27.684 91.2848 27.664 91.4768 27.648C91.6768 27.632 91.8728 27.62 92.0648 27.612C92.2568 27.604 92.4368 27.6 92.6048 27.6C93.0848 27.6 93.5328 27.636 93.9488 27.708C94.3728 27.78 94.7368 27.904 95.0408 28.08C95.3528 28.248 95.5968 28.472 95.7728 28.752C95.9488 29.032 96.0368 29.376 96.0368 29.784C96.0368 30.24 95.9288 30.616 95.7128 30.912C95.4968 31.2 95.2088 31.416 94.8488 31.56C95.3368 31.704 95.7248 31.932 96.0128 32.244C96.3008 32.556 96.4448 32.996 96.4448 33.564C96.4448 34.396 96.1368 35.024 95.5208 35.448C94.9128 35.864 93.9448 36.072 92.6168 36.072ZM91.5248 32.124V35.052C91.6128 35.06 91.7168 35.068 91.8368 35.076C91.9408 35.084 92.0608 35.092 92.1968 35.1C92.3408 35.1 92.5048 35.1 92.6888 35.1C93.0328 35.1 93.3568 35.08 93.6608 35.04C93.9728 34.992 94.2448 34.912 94.4768 34.8C94.7088 34.688 94.8928 34.532 95.0288 34.332C95.1728 34.132 95.2448 33.88 95.2448 33.576C95.2448 33.304 95.1928 33.076 95.0888 32.892C94.9848 32.7 94.8328 32.548 94.6328 32.436C94.4408 32.324 94.2088 32.244 93.9368 32.196C93.6648 32.148 93.3608 32.124 93.0248 32.124H91.5248ZM91.5248 31.188H92.7488C93.0368 31.188 93.3088 31.168 93.5648 31.128C93.8208 31.088 94.0408 31.016 94.2248 30.912C94.4168 30.808 94.5648 30.672 94.6688 30.504C94.7808 30.336 94.8368 30.124 94.8368 29.868C94.8368 29.628 94.7808 29.428 94.6688 29.268C94.5568 29.1 94.4008 28.968 94.2008 28.872C94.0088 28.768 93.7808 28.692 93.5168 28.644C93.2528 28.596 92.9728 28.572 92.6768 28.572C92.3808 28.572 92.1488 28.576 91.9808 28.584C91.8128 28.592 91.6608 28.604 91.5248 28.62V31.188ZM104.24 32.88C104.24 33.376 104.168 33.824 104.024 34.224C103.88 34.624 103.676 34.968 103.412 35.256C103.156 35.544 102.848 35.768 102.488 35.928C102.128 36.08 101.736 36.156 101.312 36.156C100.888 36.156 100.496 36.08 100.136 35.928C99.7758 35.768 99.4638 35.544 99.1998 35.256C98.9438 34.968 98.7438 34.624 98.5998 34.224C98.4558 33.824 98.3838 33.376 98.3838 32.88C98.3838 32.392 98.4558 31.948 98.5998 31.548C98.7438 31.14 98.9438 30.792 99.1998 30.504C99.4638 30.216 99.7758 29.996 100.136 29.844C100.496 29.684 100.888 29.604 101.312 29.604C101.736 29.604 102.128 29.684 102.488 29.844C102.848 29.996 103.156 30.216 103.412 30.504C103.676 30.792 103.88 31.14 104.024 31.548C104.168 31.948 104.24 32.392 104.24 32.88ZM103.076 32.88C103.076 32.176 102.916 31.62 102.596 31.212C102.284 30.796 101.856 30.588 101.312 30.588C100.768 30.588 100.336 30.796 100.016 31.212C99.7038 31.62 99.5478 32.176 99.5478 32.88C99.5478 33.584 99.7038 34.144 100.016 34.56C100.336 34.968 100.768 35.172 101.312 35.172C101.856 35.172 102.284 34.968 102.596 34.56C102.916 34.144 103.076 33.584 103.076 32.88ZM112.038 32.88C112.038 33.376 111.966 33.824 111.822 34.224C111.678 34.624 111.474 34.968 111.21 35.256C110.954 35.544 110.646 35.768 110.286 35.928C109.926 36.08 109.534 36.156 109.11 36.156C108.686 36.156 108.294 36.08 107.934 35.928C107.574 35.768 107.262 35.544 106.998 35.256C106.742 34.968 106.542 34.624 106.398 34.224C106.254 33.824 106.182 33.376 106.182 32.88C106.182 32.392 106.254 31.948 106.398 31.548C106.542 31.14 106.742 30.792 106.998 30.504C107.262 30.216 107.574 29.996 107.934 29.844C108.294 29.684 108.686 29.604 109.11 29.604C109.534 29.604 109.926 29.684 110.286 29.844C110.646 29.996 110.954 30.216 111.21 30.504C111.474 30.792 111.678 31.14 111.822 31.548C111.966 31.948 112.038 32.392 112.038 32.88ZM110.874 32.88C110.874 32.176 110.714 31.62 110.394 31.212C110.082 30.796 109.654 30.588 109.11 30.588C108.566 30.588 108.134 30.796 107.814 31.212C107.502 31.62 107.346 32.176 107.346 32.88C107.346 33.584 107.502 34.144 107.814 34.56C108.134 34.968 108.566 35.172 109.11 35.172C109.654 35.172 110.082 34.968 110.394 34.56C110.714 34.144 110.874 33.584 110.874 32.88ZM116.584 32.568C116.824 32.752 117.076 32.98 117.34 33.252C117.612 33.524 117.876 33.82 118.132 34.14C118.396 34.452 118.644 34.772 118.876 35.1C119.108 35.42 119.304 35.72 119.464 36H118.156C117.988 35.72 117.792 35.436 117.568 35.148C117.352 34.852 117.124 34.572 116.884 34.308C116.644 34.036 116.4 33.788 116.152 33.564C115.904 33.34 115.668 33.152 115.444 33V36H114.328V26.88L115.444 26.688V32.376C115.636 32.184 115.848 31.972 116.08 31.74C116.312 31.508 116.54 31.272 116.764 31.032C116.988 30.792 117.2 30.564 117.4 30.348C117.6 30.124 117.772 29.928 117.916 29.76H119.224C119.04 29.96 118.84 30.18 118.624 30.42C118.408 30.66 118.184 30.904 117.952 31.152C117.72 31.392 117.484 31.636 117.244 31.884C117.012 32.124 116.792 32.352 116.584 32.568ZM122.434 36H121.318V29.76H122.434V36ZM121.87 28.632C121.67 28.632 121.498 28.568 121.354 28.44C121.218 28.304 121.15 28.124 121.15 27.9C121.15 27.676 121.218 27.5 121.354 27.372C121.498 27.236 121.67 27.168 121.87 27.168C122.07 27.168 122.238 27.236 122.374 27.372C122.518 27.5 122.59 27.676 122.59 27.9C122.59 28.124 122.518 28.304 122.374 28.44C122.238 28.568 122.07 28.632 121.87 28.632ZM125.073 29.94C125.329 29.876 125.669 29.808 126.093 29.736C126.517 29.664 127.005 29.628 127.557 29.628C128.053 29.628 128.465 29.7 128.793 29.844C129.121 29.98 129.381 30.176 129.573 30.432C129.773 30.68 129.913 30.98 129.993 31.332C130.073 31.684 130.113 32.072 130.113 32.496V36H128.997V32.736C128.997 32.352 128.969 32.024 128.913 31.752C128.865 31.48 128.781 31.26 128.661 31.092C128.541 30.924 128.381 30.804 128.181 30.732C127.981 30.652 127.733 30.612 127.437 30.612C127.317 30.612 127.193 30.616 127.065 30.624C126.937 30.632 126.813 30.644 126.693 30.66C126.581 30.668 126.477 30.68 126.381 30.696C126.293 30.712 126.229 30.724 126.189 30.732V36H125.073V29.94ZM136.595 35.376C136.499 35.44 136.311 35.524 136.031 35.628C135.759 35.724 135.439 35.772 135.071 35.772C134.695 35.772 134.339 35.712 134.003 35.592C133.675 35.472 133.387 35.288 133.139 35.04C132.891 34.784 132.695 34.468 132.551 34.092C132.407 33.716 132.335 33.268 132.335 32.748C132.335 32.292 132.403 31.876 132.539 31.5C132.675 31.116 132.871 30.788 133.127 30.516C133.391 30.236 133.711 30.02 134.087 29.868C134.463 29.708 134.887 29.628 135.359 29.628C135.879 29.628 136.331 29.668 136.715 29.748C137.107 29.82 137.435 29.888 137.699 29.952V35.52C137.699 36.48 137.451 37.176 136.955 37.608C136.459 38.04 135.707 38.256 134.699 38.256C134.307 38.256 133.935 38.224 133.583 38.16C133.239 38.096 132.939 38.02 132.683 37.932L132.887 36.96C133.111 37.048 133.383 37.124 133.703 37.188C134.031 37.26 134.371 37.296 134.723 37.296C135.387 37.296 135.863 37.164 136.151 36.9C136.447 36.636 136.595 36.216 136.595 35.64V35.376ZM136.583 30.744C136.471 30.712 136.319 30.684 136.127 30.66C135.943 30.628 135.691 30.612 135.371 30.612C134.771 30.612 134.307 30.808 133.979 31.2C133.659 31.592 133.499 32.112 133.499 32.76C133.499 33.12 133.543 33.428 133.631 33.684C133.727 33.94 133.851 34.152 134.003 34.32C134.163 34.488 134.343 34.612 134.543 34.692C134.751 34.772 134.963 34.812 135.179 34.812C135.475 34.812 135.747 34.772 135.995 34.692C136.243 34.604 136.439 34.504 136.583 34.392V30.744ZM145.842 35.172C147.058 35.172 147.666 34.756 147.666 33.924C147.666 33.668 147.61 33.452 147.498 33.276C147.394 33.092 147.25 32.936 147.066 32.808C146.882 32.672 146.67 32.556 146.43 32.46C146.198 32.364 145.95 32.268 145.686 32.172C145.382 32.068 145.094 31.952 144.822 31.824C144.55 31.688 144.314 31.532 144.114 31.356C143.914 31.172 143.754 30.956 143.634 30.708C143.522 30.46 143.466 30.16 143.466 29.808C143.466 29.08 143.714 28.512 144.21 28.104C144.706 27.696 145.39 27.492 146.262 27.492C146.766 27.492 147.222 27.548 147.63 27.66C148.046 27.764 148.35 27.88 148.542 28.008L148.17 28.956C148.002 28.852 147.75 28.752 147.414 28.656C147.086 28.552 146.702 28.5 146.262 28.5C146.038 28.5 145.83 28.524 145.638 28.572C145.446 28.62 145.278 28.692 145.134 28.788C144.99 28.884 144.874 29.008 144.786 29.16C144.706 29.304 144.666 29.476 144.666 29.676C144.666 29.9 144.71 30.088 144.798 30.24C144.886 30.392 145.01 30.528 145.17 30.648C145.33 30.76 145.514 30.864 145.722 30.96C145.938 31.056 146.174 31.152 146.43 31.248C146.79 31.392 147.118 31.536 147.414 31.68C147.718 31.824 147.978 31.996 148.194 32.196C148.418 32.396 148.59 32.636 148.71 32.916C148.83 33.188 148.89 33.52 148.89 33.912C148.89 34.64 148.622 35.2 148.086 35.592C147.558 35.984 146.81 36.18 145.842 36.18C145.514 36.18 145.21 36.156 144.93 36.108C144.658 36.068 144.414 36.02 144.198 35.964C143.982 35.9 143.794 35.836 143.634 35.772C143.482 35.7 143.362 35.64 143.274 35.592L143.622 34.632C143.806 34.736 144.086 34.852 144.462 34.98C144.838 35.108 145.298 35.172 145.842 35.172ZM150.213 37.164C150.301 37.204 150.413 37.24 150.549 37.272C150.693 37.312 150.833 37.332 150.969 37.332C151.409 37.332 151.753 37.232 152.001 37.032C152.249 36.84 152.473 36.524 152.673 36.084C152.169 35.124 151.697 34.108 151.257 33.036C150.825 31.956 150.465 30.864 150.177 29.76H151.377C151.465 30.12 151.569 30.508 151.689 30.924C151.817 31.34 151.957 31.768 152.109 32.208C152.261 32.648 152.425 33.088 152.601 33.528C152.777 33.968 152.961 34.392 153.153 34.8C153.457 33.96 153.721 33.128 153.945 32.304C154.169 31.48 154.381 30.632 154.581 29.76H155.733C155.445 30.936 155.125 32.068 154.773 33.156C154.421 34.236 154.041 35.248 153.633 36.192C153.473 36.552 153.305 36.86 153.129 37.116C152.961 37.38 152.773 37.596 152.565 37.764C152.357 37.932 152.121 38.056 151.857 38.136C151.601 38.216 151.309 38.256 150.981 38.256C150.893 38.256 150.801 38.248 150.705 38.232C150.609 38.224 150.513 38.208 150.417 38.184C150.329 38.168 150.245 38.148 150.165 38.124C150.093 38.1 150.041 38.08 150.009 38.064L150.213 37.164ZM159.082 35.196C159.538 35.196 159.874 35.136 160.09 35.016C160.314 34.896 160.426 34.704 160.426 34.44C160.426 34.168 160.318 33.952 160.102 33.792C159.886 33.632 159.53 33.452 159.034 33.252C158.794 33.156 158.562 33.06 158.338 32.964C158.122 32.86 157.934 32.74 157.774 32.604C157.614 32.468 157.486 32.304 157.39 32.112C157.294 31.92 157.246 31.684 157.246 31.404C157.246 30.852 157.45 30.416 157.858 30.096C158.266 29.768 158.822 29.604 159.526 29.604C159.702 29.604 159.878 29.616 160.054 29.64C160.23 29.656 160.394 29.68 160.546 29.712C160.698 29.736 160.83 29.764 160.942 29.796C161.062 29.828 161.154 29.856 161.218 29.88L161.014 30.84C160.894 30.776 160.706 30.712 160.45 30.648C160.194 30.576 159.886 30.54 159.526 30.54C159.214 30.54 158.942 30.604 158.71 30.732C158.478 30.852 158.362 31.044 158.362 31.308C158.362 31.444 158.386 31.564 158.434 31.668C158.49 31.772 158.57 31.868 158.674 31.956C158.786 32.036 158.922 32.112 159.082 32.184C159.242 32.256 159.434 32.332 159.658 32.412C159.954 32.524 160.218 32.636 160.45 32.748C160.682 32.852 160.878 32.976 161.038 33.12C161.206 33.264 161.334 33.44 161.422 33.648C161.51 33.848 161.554 34.096 161.554 34.392C161.554 34.968 161.338 35.404 160.906 35.7C160.482 35.996 159.874 36.144 159.082 36.144C158.53 36.144 158.098 36.096 157.786 36C157.474 35.912 157.262 35.844 157.15 35.796L157.354 34.836C157.482 34.884 157.686 34.956 157.966 35.052C158.246 35.148 158.618 35.196 159.082 35.196ZM164.749 29.76H167.113V30.696H164.749V33.576C164.749 33.888 164.773 34.148 164.821 34.356C164.869 34.556 164.941 34.716 165.037 34.836C165.133 34.948 165.253 35.028 165.397 35.076C165.541 35.124 165.709 35.148 165.901 35.148C166.237 35.148 166.505 35.112 166.705 35.04C166.913 34.96 167.057 34.904 167.137 34.872L167.353 35.796C167.241 35.852 167.045 35.92 166.765 36C166.485 36.088 166.165 36.132 165.805 36.132C165.381 36.132 165.029 36.08 164.749 35.976C164.477 35.864 164.257 35.7 164.089 35.484C163.921 35.268 163.801 35.004 163.729 34.692C163.665 34.372 163.633 34.004 163.633 33.588V28.02L164.749 27.828V29.76ZM168.788 32.892C168.788 32.34 168.868 31.86 169.028 31.452C169.188 31.036 169.4 30.692 169.664 30.42C169.928 30.148 170.232 29.944 170.576 29.808C170.92 29.672 171.272 29.604 171.632 29.604C172.472 29.604 173.116 29.868 173.564 30.396C174.012 30.916 174.236 31.712 174.236 32.784C174.236 32.832 174.236 32.896 174.236 32.976C174.236 33.048 174.232 33.116 174.224 33.18H169.952C170 33.828 170.188 34.32 170.516 34.656C170.844 34.992 171.356 35.16 172.052 35.16C172.444 35.16 172.772 35.128 173.036 35.064C173.308 34.992 173.512 34.924 173.648 34.86L173.804 35.796C173.668 35.868 173.428 35.944 173.084 36.024C172.748 36.104 172.364 36.144 171.932 36.144C171.388 36.144 170.916 36.064 170.516 35.904C170.124 35.736 169.8 35.508 169.544 35.22C169.288 34.932 169.096 34.592 168.968 34.2C168.848 33.8 168.788 33.364 168.788 32.892ZM173.072 32.28C173.08 31.776 172.952 31.364 172.688 31.044C172.432 30.716 172.076 30.552 171.62 30.552C171.364 30.552 171.136 30.604 170.936 30.708C170.744 30.804 170.58 30.932 170.444 31.092C170.308 31.252 170.2 31.436 170.12 31.644C170.048 31.852 170 32.064 169.976 32.28H173.072ZM176.559 29.94C176.815 29.876 177.151 29.808 177.567 29.736C177.991 29.664 178.479 29.628 179.031 29.628C179.431 29.628 179.767 29.684 180.039 29.796C180.311 29.9 180.539 30.056 180.723 30.264C180.779 30.224 180.867 30.168 180.987 30.096C181.107 30.024 181.255 29.956 181.431 29.892C181.607 29.82 181.803 29.76 182.019 29.712C182.235 29.656 182.467 29.628 182.715 29.628C183.195 29.628 183.587 29.7 183.891 29.844C184.195 29.98 184.431 30.176 184.599 30.432C184.775 30.688 184.891 30.992 184.947 31.344C185.011 31.696 185.043 32.08 185.043 32.496V36H183.927V32.736C183.927 32.368 183.907 32.052 183.867 31.788C183.835 31.524 183.767 31.304 183.663 31.128C183.567 30.952 183.431 30.824 183.255 30.744C183.087 30.656 182.867 30.612 182.595 30.612C182.219 30.612 181.907 30.664 181.659 30.768C181.419 30.864 181.255 30.952 181.167 31.032C181.231 31.24 181.279 31.468 181.311 31.716C181.343 31.964 181.359 32.224 181.359 32.496V36H180.243V32.736C180.243 32.368 180.223 32.052 180.183 31.788C180.143 31.524 180.071 31.304 179.967 31.128C179.871 30.952 179.735 30.824 179.559 30.744C179.391 30.656 179.175 30.612 178.911 30.612C178.799 30.612 178.679 30.616 178.551 30.624C178.423 30.632 178.299 30.644 178.179 30.66C178.067 30.668 177.963 30.68 177.867 30.696C177.771 30.712 177.707 30.724 177.675 30.732V36H176.559V29.94Z" fill="white" fill-opacity="0.54"/>
</svg>
