<svg width="188" height="48" viewBox="0 0 188 48" fill="none" xmlns="http://www.w3.org/2000/svg">
<path d="M20.6897 34.8277L11.1567 37.7792C10.7733 37.8979 10.389 37.8778 10.0467 37.7562C9.29662 38.7887 8.86321 40.0521 8.86321 41.394V48H21.9359V33.1373C21.9359 33.9129 21.4305 34.5983 20.6897 34.8277Z" fill="#F78E20"/>
<path d="M20.3783 22.7017L11.7294 25.3796C11.3038 25.5115 10.8773 25.5061 10.487 25.3977L9.73934 25.8351C9.1966 26.1528 8.86321 26.7338 8.86321 27.3628V36.0892C8.86321 36.88 9.37212 37.5179 10.0467 37.7571C10.814 36.7011 11.9127 35.8867 13.2232 35.4808L21.9359 32.7833V21.7849C21.9359 21.5824 21.9001 21.3927 21.8403 21.2162C21.6339 21.9119 21.0971 22.4796 20.3778 22.7022L20.3783 22.7017Z" fill="#F15A3E"/>
<path d="M10.0467 37.7567C10.389 37.8778 10.7733 37.8984 11.1567 37.7797L20.6897 34.8283C21.431 34.5988 21.9359 33.9134 21.9359 33.1378V32.7833L13.2232 35.4808C11.9122 35.8868 10.8135 36.7011 10.0467 37.7572V37.7567Z" fill="#E63625"/>
<path d="M9.60059 12.3324L16.9381 5.76712C18.1956 4.64194 19.9341 4.83118 20.9941 5.81517L21.9359 4.93757L21.8952 0H13.3556L0 7.32571V13.1134H8.86321V13.9807C8.86321 13.3517 9.13139 12.7521 9.6001 12.3324H9.60059Z" fill="#5E1042"/>
<path d="M20.9941 5.81568L8.86321 17.12V23.2666C8.86321 24.3109 9.57264 25.1433 10.487 25.3973L19.2723 20.2568C20.2773 19.6689 21.4991 20.2009 21.8403 21.2153C21.8997 21.0147 21.9359 20.8054 21.9359 20.5887V8.00182C21.9359 7.09775 21.5623 6.34272 20.9941 5.81519V5.81568Z" fill="#C2203D"/>
<path d="M19.2728 20.2568L10.4875 25.3973C10.8773 25.5057 11.3043 25.511 11.7299 25.3792L20.3788 22.7013C21.0981 22.4787 21.6349 21.9109 21.8413 21.2152C21.5001 20.2004 20.2778 19.6684 19.2733 20.2568H19.2728Z" fill="#B62025"/>
<path d="M16.9381 5.76709L9.60059 12.3324C9.13139 12.7521 8.8637 13.3517 8.8637 13.9807V17.1199L20.9946 5.81563C19.9346 4.83165 18.1961 4.64191 16.9386 5.76759L16.9381 5.76709Z" fill="#441219"/>
<path d="M50.2082 15.3226C50.2597 15.3408 50.3181 15.3442 50.3759 15.326L51.8173 14.8799C51.9296 14.8451 52.0061 14.7416 52.0061 14.6245V12.9075C52.0061 12.8766 52.0007 12.8482 51.9914 12.8217C51.9399 12.6683 51.7551 12.5879 51.6031 12.6766L50.2744 13.4542L50.1612 13.5204C50.0793 13.5684 50.0288 13.6562 50.0288 13.7513V15.0711C50.0288 15.1907 50.1058 15.2873 50.2077 15.3231L50.2082 15.3226Z" fill="#022537"/>
<path d="M54.6119 19.8484C54.6119 20.9407 54.3094 21.7305 53.7039 22.2179C53.0984 22.7052 52.3233 22.9489 51.3785 22.9489C50.9941 22.9489 50.0018 22.8969 49.6027 22.7939C49.2041 22.6905 48.835 22.5174 48.4952 22.2738C48.1554 22.0301 47.8784 21.6982 47.6647 21.2775C47.4509 20.8569 47.3435 20.3288 47.3435 19.6944C47.3435 19.06 47.4651 18.3957 47.7088 17.7902C47.9525 17.1852 48.2069 16.6758 48.4727 16.262C48.5462 16.1438 48.5241 16.0482 48.406 15.9742L47.1881 15.3099C47.0406 15.2211 46.9371 15.229 46.8783 15.3319C46.4944 15.8781 46.1585 16.5537 45.8708 17.3583C45.583 18.1633 45.4388 19.0007 45.4388 19.8714C45.4388 20.6539 45.5638 21.3442 45.8154 21.9418C46.0664 22.5395 46.4164 23.045 46.867 23.4588C47.3171 23.8721 47.8637 24.1858 48.506 24.3996C49.1483 24.6134 50.47 24.7207 51.2672 24.7207C52.9499 24.7207 54.2378 24.2922 55.1311 23.4362C56.0239 22.5797 56.471 21.3913 56.471 19.8709V12.6393H54.6109V19.8489L54.6119 19.8484Z" fill="#022537"/>
<path d="M67.2326 11.9985C66.4942 11.2386 65.4686 10.8582 64.1546 10.8582C63.5639 10.8582 63.0103 10.9577 62.4941 11.1572C61.9773 11.3568 61.5233 11.6593 61.1321 12.0652C60.7408 12.4717 60.4344 12.9879 60.2133 13.6155C59.9922 14.243 59.8814 14.9775 59.8814 15.8188C59.8814 16.6601 59.9775 17.369 60.1692 17.9446C60.3609 18.5202 60.6413 18.982 61.0105 19.3287C61.3792 19.6758 61.8258 19.9263 62.3504 20.0817C62.8745 20.2366 63.4609 20.3141 64.111 20.3141H66.4805V20.8897C66.4805 21.303 66.4285 21.6462 66.3256 21.9193C66.2221 22.1924 66.078 22.4066 65.8937 22.5615C65.7088 22.7165 65.4911 22.8273 65.2406 22.8939C64.9896 22.9606 64.7165 22.9935 64.4214 22.9935C60.8919 22.9935 62.396 22.993 58.8665 22.991C58.8503 22.991 58.8346 22.991 58.8185 22.991L58.2164 24.7207H64.5096C65.0857 24.7207 65.6093 24.6467 66.0819 24.4991C66.5541 24.3515 66.9566 24.1226 67.2885 23.8127C67.6204 23.5029 67.8788 23.1043 68.0636 22.6169C68.248 22.1296 68.3406 21.5393 68.3406 20.8456V15.6859C68.3406 13.9886 67.9714 12.7594 67.2331 11.999L67.2326 11.9985ZM66.48 18.5864H64.2434C63.4163 18.5864 62.7927 18.3868 62.372 17.9882C61.9513 17.5896 61.741 16.8665 61.741 15.8183C61.741 14.8441 61.9548 14.0616 62.3833 13.4708C62.8113 12.8805 63.4021 12.5849 64.1546 12.5849C64.9812 12.5849 65.575 12.858 65.9373 13.4042C66.2986 13.9503 66.48 14.7107 66.48 15.6849V18.5859V18.5864Z" fill="#022537"/>
<path d="M39.5192 26.6613C38.5573 26.6613 37.7126 26.8417 36.985 27.2025C36.2574 27.5634 35.65 28.0473 35.1626 28.6547C34.6753 29.2622 34.3115 29.9647 34.0713 30.7619C33.8306 31.5591 33.7104 32.3945 33.7104 33.2677C33.7104 35.2798 34.1821 36.8654 35.1249 38.0234C36.0677 39.1814 37.4885 39.7605 39.3869 39.7605C40.311 39.7605 41.1303 39.5835 41.8451 39.229C42.5604 38.8745 43.1615 38.3999 43.6483 37.8052C44.1357 37.2105 44.5058 36.5109 44.7588 35.7073C45.0123 34.9038 45.1388 34.0527 45.1388 33.154C45.1388 31.1164 44.6706 29.525 43.7341 28.3797C42.7977 27.2344 41.3926 26.6617 39.5192 26.6617V26.6613ZM42.2246 36.8845C41.5725 37.7768 40.6395 38.223 39.4246 38.223C38.1082 38.223 37.1404 37.7925 36.5202 36.9321C35.9 36.0716 35.5902 34.793 35.5902 33.0971C35.5902 32.3759 35.6755 31.7111 35.8461 31.1036C36.0172 30.4962 36.2638 29.9804 36.5864 29.5563C36.909 29.1322 37.3081 28.8003 37.7827 28.5596C38.2573 28.3194 38.8044 28.1988 39.4246 28.1988C40.6778 28.1988 41.6206 28.6322 42.2535 29.499C42.8865 30.3658 43.2027 31.6282 43.2027 33.2864C43.2027 34.7925 42.8766 35.9917 42.2251 36.884L42.2246 36.8845Z" fill="#022537"/>
<path d="M52.5267 29.3823C51.7555 29.3823 51.1162 29.5279 50.6088 29.8186C50.1014 30.1093 49.7126 30.5325 49.4419 31.087V29.6053L47.7578 29.7269V39.3055H49.5233V31.7969C49.8209 31.5262 50.1862 31.3032 50.6191 31.1272C51.052 30.9511 51.5055 30.8634 51.9786 30.8634C52.6145 30.8634 53.095 31.036 53.4195 31.3811C53.7441 31.7263 53.9069 32.2842 53.9069 33.0554V39.3059H55.6724V32.7308C55.6724 31.6483 55.3949 30.8198 54.8404 30.2447C54.2859 29.6696 53.5147 29.3823 52.5267 29.3823Z" fill="#022537"/>
<path d="M60.5418 37.2968C60.0392 36.8257 59.7843 36.0319 59.7299 34.9631H65.8181C65.9397 34.138 65.9637 33.38 65.8892 32.6902C65.8147 32.0004 65.6387 31.4115 65.3617 30.9247C65.0842 30.4378 64.7023 30.0554 64.2149 29.7779C63.7281 29.5004 63.126 29.3617 62.4088 29.3617C61.6915 29.3617 61.0321 29.5004 60.4707 29.7779C59.9088 30.0554 59.4391 30.4408 59.0602 30.9345C58.6812 31.4282 58.3939 32.017 58.1978 32.7C58.0017 33.3834 57.9036 34.1306 57.9036 34.9425C57.9036 36.3496 58.2757 37.4792 59.02 38.3318C59.7642 39.1839 61.1027 39.6104 62.1249 39.6104C62.8554 39.6104 66.8958 39.5908 66.8958 39.5908L67.4576 37.9675L62.5514 38.0278C62.5514 38.0278 61.2865 37.9955 60.5423 37.2973L60.5418 37.2968ZM60.5722 31.6145C61.0257 31.1277 61.5635 30.884 62.1857 30.884C62.8078 30.884 63.3427 31.0801 63.708 31.4723C64.0732 31.8646 64.2424 32.5549 64.2154 33.5423L59.751 33.7859C59.8456 32.8255 60.1196 32.1014 60.5727 31.6145H60.5722Z" fill="#022537"/>
<rect opacity="0.24" x="78.3406" y="12" width="1" height="24" fill="#022537"/>
<path d="M93.0366 12.298C93.2046 12.606 93.396 12.9887 93.6106 13.446C93.8346 13.894 94.0633 14.384 94.2966 14.916C94.5393 15.4387 94.7773 15.9753 95.0106 16.526C95.244 17.0767 95.4633 17.5947 95.6686 18.08C95.874 17.5947 96.0933 17.0767 96.3266 16.526C96.56 15.9753 96.7933 15.4387 97.0266 14.916C97.2693 14.384 97.498 13.894 97.7126 13.446C97.9366 12.9887 98.1326 12.606 98.3006 12.298H100.289C100.382 12.942 100.466 13.6653 100.541 14.468C100.625 15.2613 100.695 16.092 100.751 16.96C100.816 17.8187 100.872 18.682 100.919 19.55C100.975 20.418 101.021 21.2347 101.059 22H98.9306C98.9026 21.0573 98.8653 20.0307 98.8186 18.92C98.772 17.8093 98.702 16.6893 98.6086 15.56C98.4406 15.952 98.254 16.386 98.0486 16.862C97.8433 17.338 97.638 17.814 97.4326 18.29C97.2366 18.766 97.0453 19.2233 96.8586 19.662C96.672 20.0913 96.5133 20.46 96.3826 20.768H94.8566C94.726 20.46 94.5673 20.0913 94.3806 19.662C94.194 19.2233 93.998 18.766 93.7926 18.29C93.5966 17.814 93.396 17.338 93.1906 16.862C92.9853 16.386 92.7986 15.952 92.6306 15.56C92.5373 16.6893 92.4673 17.8093 92.4206 18.92C92.374 20.0307 92.3366 21.0573 92.3086 22H90.1806C90.218 21.2347 90.26 20.418 90.3066 19.55C90.3626 18.682 90.4186 17.8187 90.4746 16.96C90.54 16.092 90.61 15.2613 90.6846 14.468C90.7686 13.6653 90.8573 12.942 90.9506 12.298H93.0366ZM102.535 18.374C102.535 17.7207 102.633 17.1513 102.829 16.666C103.034 16.1713 103.3 15.7607 103.627 15.434C103.954 15.1073 104.327 14.86 104.747 14.692C105.176 14.524 105.615 14.44 106.063 14.44C107.108 14.44 107.934 14.762 108.541 15.406C109.148 16.0407 109.451 16.9787 109.451 18.22C109.451 18.3413 109.446 18.4767 109.437 18.626C109.428 18.766 109.418 18.892 109.409 19.004H104.677C104.724 19.4333 104.924 19.774 105.279 20.026C105.634 20.278 106.11 20.404 106.707 20.404C107.09 20.404 107.463 20.3713 107.827 20.306C108.2 20.2313 108.504 20.1427 108.737 20.04L109.017 21.734C108.905 21.79 108.756 21.846 108.569 21.902C108.382 21.958 108.172 22.0047 107.939 22.042C107.715 22.0887 107.472 22.126 107.211 22.154C106.95 22.182 106.688 22.196 106.427 22.196C105.764 22.196 105.186 22.098 104.691 21.902C104.206 21.706 103.8 21.44 103.473 21.104C103.156 20.7587 102.918 20.3527 102.759 19.886C102.61 19.4193 102.535 18.9153 102.535 18.374ZM107.435 17.576C107.426 17.3987 107.393 17.226 107.337 17.058C107.29 16.89 107.211 16.7407 107.099 16.61C106.996 16.4793 106.861 16.372 106.693 16.288C106.534 16.204 106.334 16.162 106.091 16.162C105.858 16.162 105.657 16.204 105.489 16.288C105.321 16.3627 105.181 16.4653 105.069 16.596C104.957 16.7267 104.868 16.8807 104.803 17.058C104.747 17.226 104.705 17.3987 104.677 17.576H107.435ZM110.711 18.374C110.711 17.7207 110.809 17.1513 111.005 16.666C111.21 16.1713 111.476 15.7607 111.803 15.434C112.13 15.1073 112.503 14.86 112.923 14.692C113.352 14.524 113.791 14.44 114.239 14.44C115.284 14.44 116.11 14.762 116.717 15.406C117.324 16.0407 117.627 16.9787 117.627 18.22C117.627 18.3413 117.622 18.4767 117.613 18.626C117.604 18.766 117.594 18.892 117.585 19.004H112.853C112.9 19.4333 113.1 19.774 113.455 20.026C113.81 20.278 114.286 20.404 114.883 20.404C115.266 20.404 115.639 20.3713 116.003 20.306C116.376 20.2313 116.68 20.1427 116.913 20.04L117.193 21.734C117.081 21.79 116.932 21.846 116.745 21.902C116.558 21.958 116.348 22.0047 116.115 22.042C115.891 22.0887 115.648 22.126 115.387 22.154C115.126 22.182 114.864 22.196 114.603 22.196C113.94 22.196 113.362 22.098 112.867 21.902C112.382 21.706 111.976 21.44 111.649 21.104C111.332 20.7587 111.094 20.3527 110.935 19.886C110.786 19.4193 110.711 18.9153 110.711 18.374ZM115.611 17.576C115.602 17.3987 115.569 17.226 115.513 17.058C115.466 16.89 115.387 16.7407 115.275 16.61C115.172 16.4793 115.037 16.372 114.869 16.288C114.71 16.204 114.51 16.162 114.267 16.162C114.034 16.162 113.833 16.204 113.665 16.288C113.497 16.3627 113.357 16.4653 113.245 16.596C113.133 16.7267 113.044 16.8807 112.979 17.058C112.923 17.226 112.881 17.3987 112.853 17.576H115.611ZM119.167 12.802L121.253 12.466V14.636H123.759V16.372H121.253V18.962C121.253 19.4007 121.327 19.7507 121.477 20.012C121.635 20.2733 121.948 20.404 122.415 20.404C122.639 20.404 122.867 20.3853 123.101 20.348C123.343 20.3013 123.563 20.2407 123.759 20.166L124.053 21.79C123.801 21.8927 123.521 21.9813 123.213 22.056C122.905 22.1307 122.527 22.168 122.079 22.168C121.509 22.168 121.038 22.0933 120.665 21.944C120.291 21.7853 119.993 21.5707 119.769 21.3C119.545 21.02 119.386 20.684 119.293 20.292C119.209 19.9 119.167 19.466 119.167 18.99V12.802ZM127.543 22H125.457V14.636H127.543V22ZM127.739 12.508C127.739 12.8907 127.613 13.194 127.361 13.418C127.119 13.6327 126.829 13.74 126.493 13.74C126.157 13.74 125.863 13.6327 125.611 13.418C125.369 13.194 125.247 12.8907 125.247 12.508C125.247 12.1253 125.369 11.8267 125.611 11.612C125.863 11.388 126.157 11.276 126.493 11.276C126.829 11.276 127.119 11.388 127.361 11.612C127.613 11.8267 127.739 12.1253 127.739 12.508ZM129.504 14.888C129.859 14.7853 130.316 14.692 130.876 14.608C131.436 14.5147 132.024 14.468 132.64 14.468C133.266 14.468 133.784 14.552 134.194 14.72C134.614 14.8787 134.946 15.1073 135.188 15.406C135.431 15.7047 135.604 16.0593 135.706 16.47C135.809 16.8807 135.86 17.338 135.86 17.842V22H133.774V18.094C133.774 17.422 133.686 16.946 133.508 16.666C133.331 16.386 133 16.246 132.514 16.246C132.365 16.246 132.206 16.2553 132.038 16.274C131.87 16.2833 131.721 16.2973 131.59 16.316V22H129.504V14.888ZM139.526 18.08C139.526 19.2467 139.998 19.83 140.94 19.83C141.155 19.83 141.356 19.802 141.542 19.746C141.729 19.69 141.888 19.6247 142.018 19.55V16.218C141.916 16.1993 141.794 16.1853 141.654 16.176C141.514 16.1573 141.351 16.148 141.164 16.148C140.614 16.148 140.203 16.33 139.932 16.694C139.662 17.058 139.526 17.52 139.526 18.08ZM144.104 21.076C144.104 22.28 143.796 23.1713 143.18 23.75C142.574 24.338 141.631 24.632 140.352 24.632C139.904 24.632 139.456 24.59 139.008 24.506C138.56 24.4313 138.145 24.3287 137.762 24.198L138.126 22.448C138.453 22.5787 138.794 22.6813 139.148 22.756C139.512 22.8307 139.923 22.868 140.38 22.868C140.978 22.868 141.398 22.7373 141.64 22.476C141.892 22.2147 142.018 21.8787 142.018 21.468V21.202C141.794 21.3047 141.561 21.384 141.318 21.44C141.085 21.4867 140.828 21.51 140.548 21.51C139.531 21.51 138.752 21.2113 138.21 20.614C137.669 20.0073 137.398 19.1627 137.398 18.08C137.398 17.5387 137.482 17.0487 137.65 16.61C137.818 16.162 138.061 15.7793 138.378 15.462C138.705 15.1447 139.102 14.902 139.568 14.734C140.035 14.5567 140.562 14.468 141.15 14.468C141.402 14.468 141.659 14.482 141.92 14.51C142.191 14.5287 142.457 14.5567 142.718 14.594C142.98 14.6313 143.227 14.678 143.46 14.734C143.703 14.7807 143.918 14.832 144.104 14.888V21.076ZM152.406 12.186C153.862 12.186 154.977 12.4473 155.752 12.97C156.527 13.4833 156.914 14.286 156.914 15.378C156.914 16.0593 156.755 16.6147 156.438 17.044C156.13 17.464 155.682 17.7953 155.094 18.038C155.29 18.2807 155.495 18.5607 155.71 18.878C155.925 19.186 156.135 19.5127 156.34 19.858C156.555 20.194 156.76 20.5487 156.956 20.922C157.152 21.286 157.334 21.6453 157.502 22H155.052C154.875 21.6827 154.693 21.3607 154.506 21.034C154.329 20.7073 154.142 20.39 153.946 20.082C153.759 19.774 153.573 19.4847 153.386 19.214C153.199 18.934 153.013 18.682 152.826 18.458H151.748V22H149.564V12.438C150.04 12.3447 150.53 12.2793 151.034 12.242C151.547 12.2047 152.005 12.186 152.406 12.186ZM152.532 14.048C152.373 14.048 152.229 14.0527 152.098 14.062C151.977 14.0713 151.86 14.0807 151.748 14.09V16.722H152.364C153.185 16.722 153.773 16.6193 154.128 16.414C154.483 16.2087 154.66 15.8587 154.66 15.364C154.66 14.888 154.478 14.552 154.114 14.356C153.759 14.1507 153.232 14.048 152.532 14.048ZM165.295 18.304C165.295 18.8827 165.211 19.4147 165.043 19.9C164.875 20.376 164.632 20.7867 164.315 21.132C163.997 21.468 163.615 21.7293 163.167 21.916C162.728 22.1027 162.233 22.196 161.683 22.196C161.141 22.196 160.647 22.1027 160.199 21.916C159.76 21.7293 159.382 21.468 159.065 21.132C158.747 20.7867 158.5 20.376 158.323 19.9C158.145 19.4147 158.057 18.8827 158.057 18.304C158.057 17.7253 158.145 17.198 158.323 16.722C158.509 16.246 158.761 15.84 159.079 15.504C159.405 15.168 159.788 14.9067 160.227 14.72C160.675 14.5333 161.16 14.44 161.683 14.44C162.215 14.44 162.7 14.5333 163.139 14.72C163.587 14.9067 163.969 15.168 164.287 15.504C164.604 15.84 164.851 16.246 165.029 16.722C165.206 17.198 165.295 17.7253 165.295 18.304ZM163.167 18.304C163.167 17.66 163.036 17.156 162.775 16.792C162.523 16.4187 162.159 16.232 161.683 16.232C161.207 16.232 160.838 16.4187 160.577 16.792C160.315 17.156 160.185 17.66 160.185 18.304C160.185 18.948 160.315 19.4613 160.577 19.844C160.838 20.2173 161.207 20.404 161.683 20.404C162.159 20.404 162.523 20.2173 162.775 19.844C163.036 19.4613 163.167 18.948 163.167 18.304ZM173.798 18.304C173.798 18.8827 173.714 19.4147 173.546 19.9C173.378 20.376 173.136 20.7867 172.818 21.132C172.501 21.468 172.118 21.7293 171.67 21.916C171.232 22.1027 170.737 22.196 170.186 22.196C169.645 22.196 169.15 22.1027 168.702 21.916C168.264 21.7293 167.886 21.468 167.568 21.132C167.251 20.7867 167.004 20.376 166.826 19.9C166.649 19.4147 166.56 18.8827 166.56 18.304C166.56 17.7253 166.649 17.198 166.826 16.722C167.013 16.246 167.265 15.84 167.582 15.504C167.909 15.168 168.292 14.9067 168.73 14.72C169.178 14.5333 169.664 14.44 170.186 14.44C170.718 14.44 171.204 14.5333 171.642 14.72C172.09 14.9067 172.473 15.168 172.79 15.504C173.108 15.84 173.355 16.246 173.532 16.722C173.71 17.198 173.798 17.7253 173.798 18.304ZM171.67 18.304C171.67 17.66 171.54 17.156 171.278 16.792C171.026 16.4187 170.662 16.232 170.186 16.232C169.71 16.232 169.342 16.4187 169.08 16.792C168.819 17.156 168.688 17.66 168.688 18.304C168.688 18.948 168.819 19.4613 169.08 19.844C169.342 20.2173 169.71 20.404 170.186 20.404C170.662 20.404 171.026 20.2173 171.278 19.844C171.54 19.4613 171.67 18.948 171.67 18.304ZM179.46 18.094C179.46 17.422 179.372 16.946 179.194 16.666C179.026 16.386 178.732 16.246 178.312 16.246C178.182 16.246 178.046 16.2553 177.906 16.274C177.766 16.2833 177.631 16.2973 177.5 16.316V22H175.414V14.888C175.592 14.8413 175.797 14.7947 176.03 14.748C176.273 14.692 176.525 14.6453 176.786 14.608C177.057 14.5613 177.332 14.5287 177.612 14.51C177.892 14.482 178.168 14.468 178.438 14.468C178.97 14.468 179.4 14.538 179.726 14.678C180.062 14.8087 180.338 14.9673 180.552 15.154C180.851 14.9393 181.192 14.7713 181.574 14.65C181.966 14.5287 182.326 14.468 182.652 14.468C183.24 14.468 183.721 14.552 184.094 14.72C184.477 14.8787 184.78 15.1073 185.004 15.406C185.228 15.7047 185.382 16.0593 185.466 16.47C185.55 16.8807 185.592 17.338 185.592 17.842V22H183.506V18.094C183.506 17.422 183.418 16.946 183.24 16.666C183.072 16.386 182.778 16.246 182.358 16.246C182.246 16.246 182.088 16.274 181.882 16.33C181.686 16.386 181.523 16.456 181.392 16.54C181.458 16.7547 181.5 16.9833 181.518 17.226C181.537 17.4593 181.546 17.7113 181.546 17.982V22H179.46V18.094Z" fill="#022537"/>
<path d="M92.6166 36.072C92.4486 36.072 92.2646 36.068 92.0646 36.06C91.8726 36.052 91.6766 36.04 91.4766 36.024C91.2846 36.008 91.0926 35.988 90.9006 35.964C90.7086 35.94 90.5326 35.908 90.3726 35.868V27.804C90.5326 27.764 90.7086 27.732 90.9006 27.708C91.0926 27.684 91.2846 27.664 91.4766 27.648C91.6766 27.632 91.8726 27.62 92.0646 27.612C92.2566 27.604 92.4366 27.6 92.6046 27.6C93.0846 27.6 93.5326 27.636 93.9486 27.708C94.3726 27.78 94.7366 27.904 95.0406 28.08C95.3526 28.248 95.5966 28.472 95.7726 28.752C95.9486 29.032 96.0366 29.376 96.0366 29.784C96.0366 30.24 95.9286 30.616 95.7126 30.912C95.4966 31.2 95.2086 31.416 94.8486 31.56C95.3366 31.704 95.7246 31.932 96.0126 32.244C96.3006 32.556 96.4446 32.996 96.4446 33.564C96.4446 34.396 96.1366 35.024 95.5206 35.448C94.9126 35.864 93.9446 36.072 92.6166 36.072ZM91.5246 32.124V35.052C91.6126 35.06 91.7166 35.068 91.8366 35.076C91.9406 35.084 92.0606 35.092 92.1966 35.1C92.3406 35.1 92.5046 35.1 92.6886 35.1C93.0326 35.1 93.3566 35.08 93.6606 35.04C93.9726 34.992 94.2446 34.912 94.4766 34.8C94.7086 34.688 94.8926 34.532 95.0286 34.332C95.1726 34.132 95.2446 33.88 95.2446 33.576C95.2446 33.304 95.1926 33.076 95.0886 32.892C94.9846 32.7 94.8326 32.548 94.6326 32.436C94.4406 32.324 94.2086 32.244 93.9366 32.196C93.6646 32.148 93.3606 32.124 93.0246 32.124H91.5246ZM91.5246 31.188H92.7486C93.0366 31.188 93.3086 31.168 93.5646 31.128C93.8206 31.088 94.0406 31.016 94.2246 30.912C94.4166 30.808 94.5646 30.672 94.6686 30.504C94.7806 30.336 94.8366 30.124 94.8366 29.868C94.8366 29.628 94.7806 29.428 94.6686 29.268C94.5566 29.1 94.4006 28.968 94.2006 28.872C94.0086 28.768 93.7806 28.692 93.5166 28.644C93.2526 28.596 92.9726 28.572 92.6766 28.572C92.3806 28.572 92.1486 28.576 91.9806 28.584C91.8126 28.592 91.6606 28.604 91.5246 28.62V31.188ZM104.24 32.88C104.24 33.376 104.168 33.824 104.024 34.224C103.88 34.624 103.676 34.968 103.412 35.256C103.156 35.544 102.848 35.768 102.488 35.928C102.128 36.08 101.736 36.156 101.312 36.156C100.888 36.156 100.496 36.08 100.136 35.928C99.7756 35.768 99.4636 35.544 99.1996 35.256C98.9436 34.968 98.7436 34.624 98.5996 34.224C98.4556 33.824 98.3836 33.376 98.3836 32.88C98.3836 32.392 98.4556 31.948 98.5996 31.548C98.7436 31.14 98.9436 30.792 99.1996 30.504C99.4636 30.216 99.7756 29.996 100.136 29.844C100.496 29.684 100.888 29.604 101.312 29.604C101.736 29.604 102.128 29.684 102.488 29.844C102.848 29.996 103.156 30.216 103.412 30.504C103.676 30.792 103.88 31.14 104.024 31.548C104.168 31.948 104.24 32.392 104.24 32.88ZM103.076 32.88C103.076 32.176 102.916 31.62 102.596 31.212C102.284 30.796 101.856 30.588 101.312 30.588C100.768 30.588 100.336 30.796 100.016 31.212C99.7036 31.62 99.5476 32.176 99.5476 32.88C99.5476 33.584 99.7036 34.144 100.016 34.56C100.336 34.968 100.768 35.172 101.312 35.172C101.856 35.172 102.284 34.968 102.596 34.56C102.916 34.144 103.076 33.584 103.076 32.88ZM112.038 32.88C112.038 33.376 111.966 33.824 111.822 34.224C111.678 34.624 111.474 34.968 111.21 35.256C110.954 35.544 110.646 35.768 110.286 35.928C109.926 36.08 109.534 36.156 109.11 36.156C108.686 36.156 108.294 36.08 107.934 35.928C107.574 35.768 107.262 35.544 106.998 35.256C106.742 34.968 106.542 34.624 106.398 34.224C106.254 33.824 106.182 33.376 106.182 32.88C106.182 32.392 106.254 31.948 106.398 31.548C106.542 31.14 106.742 30.792 106.998 30.504C107.262 30.216 107.574 29.996 107.934 29.844C108.294 29.684 108.686 29.604 109.11 29.604C109.534 29.604 109.926 29.684 110.286 29.844C110.646 29.996 110.954 30.216 111.21 30.504C111.474 30.792 111.678 31.14 111.822 31.548C111.966 31.948 112.038 32.392 112.038 32.88ZM110.874 32.88C110.874 32.176 110.714 31.62 110.394 31.212C110.082 30.796 109.654 30.588 109.11 30.588C108.566 30.588 108.134 30.796 107.814 31.212C107.502 31.62 107.346 32.176 107.346 32.88C107.346 33.584 107.502 34.144 107.814 34.56C108.134 34.968 108.566 35.172 109.11 35.172C109.654 35.172 110.082 34.968 110.394 34.56C110.714 34.144 110.874 33.584 110.874 32.88ZM116.584 32.568C116.824 32.752 117.076 32.98 117.34 33.252C117.612 33.524 117.876 33.82 118.132 34.14C118.396 34.452 118.644 34.772 118.876 35.1C119.108 35.42 119.304 35.72 119.464 36H118.156C117.988 35.72 117.792 35.436 117.568 35.148C117.352 34.852 117.124 34.572 116.884 34.308C116.644 34.036 116.4 33.788 116.152 33.564C115.904 33.34 115.668 33.152 115.444 33V36H114.328V26.88L115.444 26.688V32.376C115.636 32.184 115.848 31.972 116.08 31.74C116.312 31.508 116.54 31.272 116.764 31.032C116.988 30.792 117.2 30.564 117.4 30.348C117.6 30.124 117.772 29.928 117.916 29.76H119.224C119.04 29.96 118.84 30.18 118.624 30.42C118.408 30.66 118.184 30.904 117.952 31.152C117.72 31.392 117.484 31.636 117.244 31.884C117.012 32.124 116.792 32.352 116.584 32.568ZM122.433 36H121.317V29.76H122.433V36ZM121.869 28.632C121.669 28.632 121.497 28.568 121.353 28.44C121.217 28.304 121.149 28.124 121.149 27.9C121.149 27.676 121.217 27.5 121.353 27.372C121.497 27.236 121.669 27.168 121.869 27.168C122.069 27.168 122.237 27.236 122.373 27.372C122.517 27.5 122.589 27.676 122.589 27.9C122.589 28.124 122.517 28.304 122.373 28.44C122.237 28.568 122.069 28.632 121.869 28.632ZM125.072 29.94C125.328 29.876 125.668 29.808 126.092 29.736C126.516 29.664 127.004 29.628 127.556 29.628C128.052 29.628 128.464 29.7 128.792 29.844C129.12 29.98 129.38 30.176 129.572 30.432C129.772 30.68 129.912 30.98 129.992 31.332C130.072 31.684 130.112 32.072 130.112 32.496V36H128.996V32.736C128.996 32.352 128.968 32.024 128.912 31.752C128.864 31.48 128.78 31.26 128.66 31.092C128.54 30.924 128.38 30.804 128.18 30.732C127.98 30.652 127.732 30.612 127.436 30.612C127.316 30.612 127.192 30.616 127.064 30.624C126.936 30.632 126.812 30.644 126.692 30.66C126.58 30.668 126.476 30.68 126.38 30.696C126.292 30.712 126.228 30.724 126.188 30.732V36H125.072V29.94ZM136.595 35.376C136.499 35.44 136.311 35.524 136.031 35.628C135.759 35.724 135.439 35.772 135.071 35.772C134.695 35.772 134.339 35.712 134.003 35.592C133.675 35.472 133.387 35.288 133.139 35.04C132.891 34.784 132.695 34.468 132.551 34.092C132.407 33.716 132.335 33.268 132.335 32.748C132.335 32.292 132.403 31.876 132.539 31.5C132.675 31.116 132.871 30.788 133.127 30.516C133.391 30.236 133.711 30.02 134.087 29.868C134.463 29.708 134.887 29.628 135.359 29.628C135.879 29.628 136.331 29.668 136.715 29.748C137.107 29.82 137.435 29.888 137.699 29.952V35.52C137.699 36.48 137.451 37.176 136.955 37.608C136.459 38.04 135.707 38.256 134.699 38.256C134.307 38.256 133.935 38.224 133.583 38.16C133.239 38.096 132.939 38.02 132.683 37.932L132.887 36.96C133.111 37.048 133.383 37.124 133.703 37.188C134.031 37.26 134.371 37.296 134.723 37.296C135.387 37.296 135.863 37.164 136.151 36.9C136.447 36.636 136.595 36.216 136.595 35.64V35.376ZM136.583 30.744C136.471 30.712 136.319 30.684 136.127 30.66C135.943 30.628 135.691 30.612 135.371 30.612C134.771 30.612 134.307 30.808 133.979 31.2C133.659 31.592 133.499 32.112 133.499 32.76C133.499 33.12 133.543 33.428 133.631 33.684C133.727 33.94 133.851 34.152 134.003 34.32C134.163 34.488 134.343 34.612 134.543 34.692C134.751 34.772 134.963 34.812 135.179 34.812C135.475 34.812 135.747 34.772 135.995 34.692C136.243 34.604 136.439 34.504 136.583 34.392V30.744ZM145.842 35.172C147.058 35.172 147.666 34.756 147.666 33.924C147.666 33.668 147.61 33.452 147.498 33.276C147.394 33.092 147.25 32.936 147.066 32.808C146.882 32.672 146.67 32.556 146.43 32.46C146.198 32.364 145.95 32.268 145.686 32.172C145.382 32.068 145.094 31.952 144.822 31.824C144.55 31.688 144.314 31.532 144.114 31.356C143.914 31.172 143.754 30.956 143.634 30.708C143.522 30.46 143.466 30.16 143.466 29.808C143.466 29.08 143.714 28.512 144.21 28.104C144.706 27.696 145.39 27.492 146.262 27.492C146.766 27.492 147.222 27.548 147.63 27.66C148.046 27.764 148.35 27.88 148.542 28.008L148.17 28.956C148.002 28.852 147.75 28.752 147.414 28.656C147.086 28.552 146.702 28.5 146.262 28.5C146.038 28.5 145.83 28.524 145.638 28.572C145.446 28.62 145.278 28.692 145.134 28.788C144.99 28.884 144.874 29.008 144.786 29.16C144.706 29.304 144.666 29.476 144.666 29.676C144.666 29.9 144.71 30.088 144.798 30.24C144.886 30.392 145.01 30.528 145.17 30.648C145.33 30.76 145.514 30.864 145.722 30.96C145.938 31.056 146.174 31.152 146.43 31.248C146.79 31.392 147.118 31.536 147.414 31.68C147.718 31.824 147.978 31.996 148.194 32.196C148.418 32.396 148.59 32.636 148.71 32.916C148.83 33.188 148.89 33.52 148.89 33.912C148.89 34.64 148.622 35.2 148.086 35.592C147.558 35.984 146.81 36.18 145.842 36.18C145.514 36.18 145.21 36.156 144.93 36.108C144.658 36.068 144.414 36.02 144.198 35.964C143.982 35.9 143.794 35.836 143.634 35.772C143.482 35.7 143.362 35.64 143.274 35.592L143.622 34.632C143.806 34.736 144.086 34.852 144.462 34.98C144.838 35.108 145.298 35.172 145.842 35.172ZM150.213 37.164C150.301 37.204 150.413 37.24 150.549 37.272C150.693 37.312 150.833 37.332 150.969 37.332C151.409 37.332 151.753 37.232 152.001 37.032C152.249 36.84 152.473 36.524 152.673 36.084C152.169 35.124 151.697 34.108 151.257 33.036C150.825 31.956 150.465 30.864 150.177 29.76H151.377C151.465 30.12 151.569 30.508 151.689 30.924C151.817 31.34 151.957 31.768 152.109 32.208C152.261 32.648 152.425 33.088 152.601 33.528C152.777 33.968 152.961 34.392 153.153 34.8C153.457 33.96 153.721 33.128 153.945 32.304C154.169 31.48 154.381 30.632 154.581 29.76H155.733C155.445 30.936 155.125 32.068 154.773 33.156C154.421 34.236 154.041 35.248 153.633 36.192C153.473 36.552 153.305 36.86 153.129 37.116C152.961 37.38 152.773 37.596 152.565 37.764C152.357 37.932 152.121 38.056 151.857 38.136C151.601 38.216 151.309 38.256 150.981 38.256C150.893 38.256 150.801 38.248 150.705 38.232C150.609 38.224 150.513 38.208 150.417 38.184C150.329 38.168 150.245 38.148 150.165 38.124C150.093 38.1 150.041 38.08 150.009 38.064L150.213 37.164ZM159.082 35.196C159.538 35.196 159.874 35.136 160.09 35.016C160.314 34.896 160.426 34.704 160.426 34.44C160.426 34.168 160.318 33.952 160.102 33.792C159.886 33.632 159.53 33.452 159.034 33.252C158.794 33.156 158.562 33.06 158.338 32.964C158.122 32.86 157.934 32.74 157.774 32.604C157.614 32.468 157.486 32.304 157.39 32.112C157.294 31.92 157.246 31.684 157.246 31.404C157.246 30.852 157.45 30.416 157.858 30.096C158.266 29.768 158.822 29.604 159.526 29.604C159.702 29.604 159.878 29.616 160.054 29.64C160.23 29.656 160.394 29.68 160.546 29.712C160.698 29.736 160.83 29.764 160.942 29.796C161.062 29.828 161.154 29.856 161.218 29.88L161.014 30.84C160.894 30.776 160.706 30.712 160.45 30.648C160.194 30.576 159.886 30.54 159.526 30.54C159.214 30.54 158.942 30.604 158.71 30.732C158.478 30.852 158.362 31.044 158.362 31.308C158.362 31.444 158.386 31.564 158.434 31.668C158.49 31.772 158.57 31.868 158.674 31.956C158.786 32.036 158.922 32.112 159.082 32.184C159.242 32.256 159.434 32.332 159.658 32.412C159.954 32.524 160.218 32.636 160.45 32.748C160.682 32.852 160.878 32.976 161.038 33.12C161.206 33.264 161.334 33.44 161.422 33.648C161.51 33.848 161.554 34.096 161.554 34.392C161.554 34.968 161.338 35.404 160.906 35.7C160.482 35.996 159.874 36.144 159.082 36.144C158.53 36.144 158.098 36.096 157.786 36C157.474 35.912 157.262 35.844 157.15 35.796L157.354 34.836C157.482 34.884 157.686 34.956 157.966 35.052C158.246 35.148 158.618 35.196 159.082 35.196ZM164.749 29.76H167.113V30.696H164.749V33.576C164.749 33.888 164.773 34.148 164.821 34.356C164.869 34.556 164.941 34.716 165.037 34.836C165.133 34.948 165.253 35.028 165.397 35.076C165.541 35.124 165.709 35.148 165.901 35.148C166.237 35.148 166.505 35.112 166.705 35.04C166.913 34.96 167.057 34.904 167.137 34.872L167.353 35.796C167.241 35.852 167.045 35.92 166.765 36C166.485 36.088 166.165 36.132 165.805 36.132C165.381 36.132 165.029 36.08 164.749 35.976C164.477 35.864 164.257 35.7 164.089 35.484C163.921 35.268 163.801 35.004 163.729 34.692C163.665 34.372 163.633 34.004 163.633 33.588V28.02L164.749 27.828V29.76ZM168.788 32.892C168.788 32.34 168.868 31.86 169.028 31.452C169.188 31.036 169.4 30.692 169.664 30.42C169.928 30.148 170.232 29.944 170.576 29.808C170.92 29.672 171.272 29.604 171.632 29.604C172.472 29.604 173.116 29.868 173.564 30.396C174.012 30.916 174.236 31.712 174.236 32.784C174.236 32.832 174.236 32.896 174.236 32.976C174.236 33.048 174.232 33.116 174.224 33.18H169.952C170 33.828 170.188 34.32 170.516 34.656C170.844 34.992 171.356 35.16 172.052 35.16C172.444 35.16 172.772 35.128 173.036 35.064C173.308 34.992 173.512 34.924 173.648 34.86L173.804 35.796C173.668 35.868 173.428 35.944 173.084 36.024C172.748 36.104 172.364 36.144 171.932 36.144C171.388 36.144 170.916 36.064 170.516 35.904C170.124 35.736 169.8 35.508 169.544 35.22C169.288 34.932 169.096 34.592 168.968 34.2C168.848 33.8 168.788 33.364 168.788 32.892ZM173.072 32.28C173.08 31.776 172.952 31.364 172.688 31.044C172.432 30.716 172.076 30.552 171.62 30.552C171.364 30.552 171.136 30.604 170.936 30.708C170.744 30.804 170.58 30.932 170.444 31.092C170.308 31.252 170.2 31.436 170.12 31.644C170.048 31.852 170 32.064 169.976 32.28H173.072ZM176.559 29.94C176.815 29.876 177.151 29.808 177.567 29.736C177.991 29.664 178.479 29.628 179.031 29.628C179.431 29.628 179.767 29.684 180.039 29.796C180.311 29.9 180.539 30.056 180.723 30.264C180.779 30.224 180.867 30.168 180.987 30.096C181.107 30.024 181.255 29.956 181.431 29.892C181.607 29.82 181.803 29.76 182.019 29.712C182.235 29.656 182.467 29.628 182.715 29.628C183.195 29.628 183.587 29.7 183.891 29.844C184.195 29.98 184.431 30.176 184.599 30.432C184.775 30.688 184.891 30.992 184.947 31.344C185.011 31.696 185.043 32.08 185.043 32.496V36H183.927V32.736C183.927 32.368 183.907 32.052 183.867 31.788C183.835 31.524 183.767 31.304 183.663 31.128C183.567 30.952 183.431 30.824 183.255 30.744C183.087 30.656 182.867 30.612 182.595 30.612C182.219 30.612 181.907 30.664 181.659 30.768C181.419 30.864 181.255 30.952 181.167 31.032C181.231 31.24 181.279 31.468 181.311 31.716C181.343 31.964 181.359 32.224 181.359 32.496V36H180.243V32.736C180.243 32.368 180.223 32.052 180.183 31.788C180.143 31.524 180.071 31.304 179.967 31.128C179.871 30.952 179.735 30.824 179.559 30.744C179.391 30.656 179.175 30.612 178.911 30.612C178.799 30.612 178.679 30.616 178.551 30.624C178.423 30.632 178.299 30.644 178.179 30.66C178.067 30.668 177.963 30.68 177.867 30.696C177.771 30.712 177.707 30.724 177.675 30.732V36H176.559V29.94Z" fill="#022537" fill-opacity="0.54"/>
</svg>
